<?xml version="1.0" encoding="UTF-8"?>
<svg width="338px" height="42px" viewBox="0 0 338 42" version="1.1" xmlns="http://www.w3.org/2000/svg" xmlns:xlink="http://www.w3.org/1999/xlink">
    <title>Group</title>
    <g id="Page-1" stroke="none" stroke-width="1" fill="none" fill-rule="evenodd">
        <g id="Desktop-HD" transform="translate(-65.000000, -80.000000)">
            <g id="Group" transform="translate(65.128723, 80.908423)">
                <g id="Group-4" transform="translate(54.640831, 2.139015)">
                    <path d="M139.204692,35.9524538 C134.405385,35.9524538 130.296385,34.2509154 126.892231,30.8467615 C123.488615,27.4426077 121.786,23.3330692 121.786,18.5343 C121.786,13.7355308 123.488615,9.63406923 126.892231,6.23045385 C130.296385,2.8263 134.405385,1.12422308 139.204692,1.12422308 C144.003462,1.12422308 148.104385,2.8263 151.508538,6.23045385 C154.912692,9.63406923 156.614231,13.7355308 156.614231,18.5343 C156.614231,23.3330692 154.912692,27.4426077 151.508538,30.8467615 C148.104385,34.2509154 144.003462,35.9524538 139.204692,35.9524538 L139.204692,35.9524538 Z M139.204692,4.01360769 C135.194231,4.01360769 131.773923,5.43299231 128.934615,8.27283846 C126.103385,11.1121462 124.683462,14.5329923 124.683462,18.5343 C124.683462,22.5442231 126.103385,25.9650692 128.934615,28.8043769 C131.773923,31.6350692 135.194231,33.0549923 139.204692,33.0549923 C143.206538,33.0549923 146.626846,31.6350692 149.466154,28.8043769 C152.305462,25.9650692 153.725385,22.5442231 153.725385,18.5343 C153.725385,14.5329923 152.305462,11.1121462 149.466154,8.27283846 C146.626846,5.43299231 143.206538,4.01360769 139.204692,4.01360769 L139.204692,4.01360769 Z M94.9113846,1.02460769 L94.9113846,35.9524538 L116.481077,35.9524538 L116.481077,33.0549923 L97.8007692,33.0549923 L97.8007692,19.9456077 L112.371538,19.9456077 L112.371538,17.0319923 L97.8007692,17.0319923 L97.8007692,3.92260769 L116.481077,3.92260769 L116.481077,1.02460769 L94.9113846,1.02460769 Z M64.0187692,1.12422308 L64.0187692,4.01360769 L75.5504615,4.01360769 L75.5504615,35.9524538 L78.4398462,35.9524538 L78.4398462,4.01360769 L90.2617692,4.01360769 L90.2617692,1.12422308 L64.0187692,1.12422308 Z M60.3491538,8.37245385 C59.9587692,6.67037692 58.9873846,5.13468462 57.4511538,3.77291538 C55.426,1.98791538 52.8268462,1.09945385 49.6639231,1.09945385 C47.4309231,1.09945385 45.4881538,1.57276154 43.8523077,2.53553077 C42.2336923,3.49076154 41.0544615,4.84445385 40.3237692,6.59553077 C39.7260769,8.05691538 39.5435385,9.55114615 39.7680769,11.0954538 C39.9920769,12.6311462 40.5978462,13.8933 41.5692308,14.8646846 C42.8976154,16.1930692 45.3718462,17.5133769 48.9833077,18.8245308 C52.57,20.1448385 55.0022308,21.4484538 56.2810769,22.7434538 C57.0941538,23.5904538 57.6089231,24.5871462 57.8415385,25.7405308 C58.0655385,26.8863769 57.9497692,27.9988385 57.5017692,29.0698385 C56.9616923,30.3319923 56.0899231,31.3114538 54.8692308,32.0087615 C53.641,32.6899154 52.1548462,33.0302231 50.4193846,33.0302231 C47.6796923,33.0302231 45.5543846,32.2252231 44.0520769,30.5974538 C43.2713077,29.7757615 42.7732308,28.9120692 42.5653846,28.0236077 L39.7427692,28.6799923 C40.1164615,30.3820692 41.0711538,31.9096846 42.6154615,33.2542231 C44.6578462,35.0559154 47.2559231,35.9524538 50.4193846,35.9524538 C52.7277692,35.9524538 54.7448462,35.4376846 56.4803077,34.4167615 C58.1985385,33.4119923 59.4278462,32.0006846 60.1746923,30.1909154 C60.8553077,28.5798385 61.0297692,26.9197615 60.6894615,25.2009923 C60.3653077,23.4827615 59.577,21.9879923 58.3234615,20.7263769 C56.7538462,19.1239154 53.9726923,17.5882231 49.9880769,16.1268385 C46.7745385,14.9481462 44.6578462,13.8351462 43.6369231,12.7975308 C43.0801538,12.2579923 42.7484615,11.5106077 42.6402308,10.5311462 C42.5239231,9.55976154 42.6569231,8.62122308 43.0306154,7.71660769 C44.0520769,5.23376154 46.2603077,3.98883846 49.6639231,3.98883846 C52.4036154,3.98883846 54.5289231,4.80191538 56.0403846,6.42160769 C56.8039231,7.25191538 57.2853077,8.10645385 57.5017692,9.00353077 L60.3491538,8.37245385 Z M17.4181538,35.9524538 C12.6193846,35.9524538 8.50984615,34.2509154 5.10569231,30.8467615 C1.70207692,27.4426077 0,23.3330692 0,18.5343 C0,13.7355308 1.70207692,9.63406923 5.10569231,6.23045385 C8.50984615,2.8263 12.6193846,1.12422308 17.4181538,1.12422308 C22.2169231,1.12422308 26.3183846,2.8263 29.722,6.23045385 C33.1261538,9.63406923 34.8276923,13.7355308 34.8276923,18.5343 C34.8276923,23.3330692 33.1261538,27.4426077 29.722,30.8467615 C26.3183846,34.2509154 22.2169231,35.9524538 17.4181538,35.9524538 L17.4181538,35.9524538 Z M17.4181538,4.01360769 C13.4076923,4.01360769 9.98738462,5.43299231 7.14807692,8.27283846 C4.31684615,11.1121462 2.89692308,14.5329923 2.89692308,18.5343 C2.89692308,22.5442231 4.31684615,25.9650692 7.14807692,28.8043769 C9.98738462,31.6350692 13.4076923,33.0549923 17.4181538,33.0549923 C21.42,33.0549923 24.8403077,31.6350692 27.6796154,28.8043769 C30.5189231,25.9650692 31.9388462,22.5442231 31.9388462,18.5343 C31.9388462,14.5329923 30.5189231,11.1121462 27.6796154,8.27283846 C24.8403077,5.43299231 21.42,4.01360769 17.4181538,4.01360769 L17.4181538,4.01360769 Z" id="Fill-4" fill="#4E4E4D"></path>
                    <g id="Group-11" transform="translate(0.000000, 0.952562)" fill="#FEFEFE">
                        <g id="Group-8" transform="translate(160.999677, 0.000000)">
                            <path d="M117.940523,0.171823077 L106.781985,15.0581308 L95.5906,0.171823077 L91.9872154,0.171823077 L104.955523,17.4903615 L91.8213692,35.0000538 L95.4414462,35.0000538 L106.781985,19.8978231 L118.089677,35.0000538 L121.759292,35.0000538 L108.600369,17.4655923 L121.568138,0.171823077 L117.940523,0.171823077 Z M83.8930615,35.0000538 L86.8072154,35.0000538 L86.8072154,0.0474384615 L83.8930615,0.0474384615 L83.8930615,35.0000538 Z M56.9850615,0.171823077 L56.9850615,35.0000538 L78.5127538,35.0000538 L78.5127538,32.1025923 L59.8825231,32.1025923 L59.8825231,0.171823077 L56.9850615,0.171823077 Z M38.6951385,4.1069 L44.7722154,20.1137462 L32.5927538,20.1137462 L38.6951385,4.1069 Z M37.0679077,0.171823077 L23.8336,34.9499769 L26.9475231,34.9499769 L31.4969846,23.0117462 L45.8679846,23.0117462 L50.4427538,35.0000538 L53.5561385,34.9752846 L40.2976,0.171823077 L37.0679077,0.171823077 Z M21.1359077,7.41951538 C20.7455231,5.71797692 19.7741385,4.18174615 18.2384462,2.81997692 C16.2127538,1.03551538 13.6141385,0.147053846 10.4506769,0.147053846 C8.21713846,0.147053846 6.27490769,0.620361538 4.63906154,1.58313077 C3.02044615,2.53836154 1.84121538,3.89151538 1.11052308,5.64313077 C0.513369231,7.10451538 0.330292308,8.59874615 0.554830769,10.1430538 C0.778830769,11.6787462 1.3846,12.9403615 2.35598462,13.9122846 C3.68436923,15.2406692 6.1586,16.5609769 9.77006154,17.8721308 C13.3562154,19.1924385 15.7889846,20.4960538 17.0678308,21.7910538 C17.8814462,22.6380538 18.3962154,23.6342077 18.6282923,24.7881308 C18.8522923,25.9339769 18.7365231,27.0464385 18.2885231,28.1174385 C17.7489846,29.3795923 16.8766769,30.3590538 15.6559846,31.0563615 C14.4277538,31.7375154 12.9416,32.0778231 11.2061385,32.0778231 C8.46644615,32.0778231 6.34113846,31.2722846 4.83829231,29.6445154 C4.05806154,28.8228231 3.55998462,27.9596692 3.35213846,27.0712077 L0.529523077,27.7270538 C0.903215385,29.4291308 1.85790769,30.9567462 3.40221538,32.3018231 C5.4446,34.1035154 8.04267692,35.0000538 11.2061385,35.0000538 C13.5139846,35.0000538 15.5316,34.4852846 17.2670615,33.4643615 C18.9858308,32.4590538 20.2146,31.0482846 20.9609077,29.2379769 C21.6420615,27.6274385 21.8165231,25.9668231 21.4767538,24.2485923 C21.1526,22.5298231 20.3637538,21.0355923 19.1102154,19.7734385 C17.5411385,18.1715154 14.7599846,16.6352846 10.7748308,15.1744385 C7.56183077,13.9952077 5.4446,12.8822077 4.42367692,11.8451308 C3.86690769,11.3050538 3.53521538,10.5582077 3.42698462,9.57820769 C3.31067692,8.60736154 3.44367692,7.66882308 3.81736923,6.76366923 C4.83829231,4.28136154 7.04706154,3.0359 10.4506769,3.0359 C13.1903692,3.0359 15.3156769,3.84951538 16.8271385,5.46866923 C17.5912154,6.29897692 18.0720615,7.15405385 18.2885231,8.05059231 L21.1359077,7.41951538 Z" id="Fill-6"></path>
                        </g>
                    </g>
                </g>
                <path d="M26.1304615,5.75669231 C25.5440769,5.75669231 25.0422308,5.54884615 24.6243846,5.13423077 C24.2103077,4.718 24.0035385,4.21561538 24.0035385,3.62976923 C24.0035385,3.04392308 24.2103077,2.54315385 24.6243846,2.12584615 C25.0422308,1.71069231 25.5440769,1.50338462 26.1304615,1.50338462 C26.7163077,1.50338462 27.2170769,1.71069231 27.6343846,2.12584615 C28.049,2.54315385 28.2568462,3.04392308 28.2568462,3.62976923 C28.2568462,4.21561538 28.049,4.718 27.6343846,5.13423077 C27.2170769,5.54884615 26.7163077,5.75669231 26.1304615,5.75669231 M25.3001538,13.1309231 C24.5403846,13.1309231 23.8899231,12.8616923 23.3482308,12.3243077 C22.8113846,11.7847692 22.5437692,11.1343077 22.5437692,10.3745385 C22.5437692,9.61584615 22.8113846,8.96646154 23.3482308,8.42530769 C23.8899231,7.88792308 24.5403846,7.61869231 25.3001538,7.61869231 C26.0593846,7.61869231 26.7082308,7.88792308 27.2493846,8.42530769 C27.7867692,8.96646154 28.056,9.61584615 28.056,10.3745385 C28.056,11.1343077 27.7867692,11.7847692 27.2493846,12.3243077 C26.7082308,12.8616923 26.0593846,13.1309231 25.3001538,13.1309231 M23.3288462,19.8762308 C22.5690769,19.8762308 21.9186154,19.607 21.3774615,19.0696154 C20.8395385,18.5300769 20.5724615,17.8790769 20.5724615,17.1198462 C20.5724615,16.3606154 20.8395385,15.7112308 21.3774615,15.1700769 C21.9186154,14.6326923 22.5690769,14.3634615 23.3288462,14.3634615 C24.0875385,14.3634615 24.7369231,14.6326923 25.2780769,15.1700769 C25.8149231,15.7112308 26.0846923,16.3606154 26.0846923,17.1198462 C26.0846923,17.8790769 25.8149231,18.5300769 25.2780769,19.0696154 C24.7369231,19.607 24.0875385,19.8762308 23.3288462,19.8762308 M20.0081538,28.378 C19.0222308,28.378 18.1768462,28.0274615 17.4741538,27.3301538 C16.7763077,26.6301538 16.4284615,25.7847692 16.4284615,24.7983077 C16.4284615,23.8123846 16.7763077,22.9691538 17.4741538,22.2675385 C18.1768462,21.5691538 19.0222308,21.2191538 20.0081538,21.2191538 C20.9940769,21.2191538 21.8367692,21.5691538 22.5394615,22.2675385 C23.2373077,22.9691538 23.5867692,23.8123846 23.5867692,24.7983077 C23.5867692,25.7847692 23.2373077,26.6301538 22.5394615,27.3301538 C21.8367692,28.0274615 20.9940769,28.378 20.0081538,28.378 M18.7621538,36.6794615 C17.7762308,36.6794615 16.9313846,36.3294615 16.2281538,35.6316154 C15.5303077,34.9316154 15.1835385,34.0862308 15.1835385,33.0997692 C15.1835385,32.1138462 15.5303077,31.2711538 16.2281538,30.569 C16.9313846,29.8706154 17.7762308,29.5206154 18.7621538,29.5206154 C19.7480769,29.5206154 20.5918462,29.8706154 21.2945385,30.569 C21.9918462,31.2711538 22.3418462,32.1138462 22.3418462,33.0997692 C22.3418462,34.0862308 21.9918462,34.9316154 21.2945385,35.6316154 C20.5918462,36.3294615 19.7480769,36.6794615 18.7621538,36.6794615 M20.3877692,0 C14.7576154,0 9.95507692,1.99338462 5.96830769,5.98015385 C1.99338462,9.96692308 -7.10542736e-15,14.7694615 -7.10542736e-15,20.3883077 C-7.10542736e-15,26.0179231 1.99338462,30.821 5.96830769,34.8077692 C9.42684615,38.2560769 13.4997692,40.2128462 18.1940769,40.6705385 C18.2188462,39.9592308 18.4853846,39.3480769 18.9953077,38.8343846 C19.5353846,38.2986154 20.1847692,38.0299231 20.9418462,38.0299231 C21.6994615,38.0299231 22.3466923,38.2986154 22.8862308,38.8343846 C23.3627692,39.3146923 23.6287692,39.8811538 23.681,40.5332308 C27.9068462,39.893 31.6114615,37.9830769 34.7959231,34.8077692 C38.7826923,30.821 40.7760769,26.0179231 40.7760769,20.3883077 C40.7760769,14.7694615 38.7826923,9.96692308 34.7959231,5.98015385 C30.8091538,1.99338462 26.0066154,0 20.3877692,0" id="Fill-1" fill="#FEFEFE"></path>
            </g>
        </g>
    </g>
</svg>